name C:\Users\tom_v\My Drive\PostDoc\predsim_nn\ResultsSprinting\Case_1\GRF.mot
datacolumns 19
datarows 10
range 0.000000 0.720832
endheader 
time	r_ground_force_vx	r_ground_force_vy	r_ground_force_vz	r_ground_force_px	r_ground_force_py	r_ground_force_pz	l_ground_force_vx	l_ground_force_vy	l_ground_force_vz	l_ground_force_px	l_ground_force_py	l_ground_force_pz	r_ground_torque_x	r_ground_torque_y	r_ground_torque_z	l_ground_torque_x	l_ground_torque_y	l_ground_torque_z	
          0.00000000	        -33.76476142	        903.79010377	        -40.00920045	          0.15545105	          0.00000000	          0.03545096	          0.00000000	          0.00000000	          0.00000000	          0.00000000	          0.00000000	          0.00000000	          0.00000000	         -7.92230294	          0.00000000	          0.00000000	          0.00000000	          0.00000000	
          0.08009242	         43.61089944	       1554.02676640	        -28.15598727	          0.13102363	          0.00000000	          0.04177163	          0.00000000	          0.00000000	          0.00000000	          0.00000000	          0.00000000	          0.00000000	          0.00000000	          3.24290546	          0.00000000	          0.00000000	          0.00000000	          0.00000000	
          0.16018483	        129.57440955	        435.72669851	        -10.07466337	          0.20086583	          0.00000000	          0.06989996	          0.00000000	          0.00000000	          0.00000000	          0.00000000	          0.00000000	          0.00000000	          0.00000000	          4.32692660	          0.00000000	          0.00000000	          0.00000000	          0.00000000	
          0.24027725	          0.00000000	          0.00000000	          0.00000000	          0.00000000	          0.00000000	          0.00000000	          0.00000000	          0.00000000	          0.00000000	          0.00000000	          0.00000000	          0.00000000	          0.00000000	          0.00000000	          0.00000000	          0.00000000	          0.00000000	          0.00000000	
          0.32036967	          0.00000000	          0.00000000	          0.00000000	          0.00000000	          0.00000000	          0.00000000	          0.00000000	          0.00000000	          0.00000000	          0.00000000	          0.00000000	          0.00000000	          0.00000000	          0.00000000	          0.00000000	          0.00000000	          0.00000000	          0.00000000	
          0.40046208	          0.00000000	          0.00000000	          0.00000000	          0.00000000	          0.00000000	          0.00000000	        -33.76476142	        903.79010377	         40.00920045	          1.35683730	          0.00000000	         -0.03545096	          0.00000000	          0.00000000	          0.00000000	          0.00000000	          7.92230294	          0.00000000	
          0.48055450	          0.00000000	          0.00000000	          0.00000000	          0.00000000	          0.00000000	          0.00000000	         43.61089944	       1554.02676640	         28.15598727	          1.33240987	          0.00000000	         -0.04177163	          0.00000000	          0.00000000	          0.00000000	          0.00000000	         -3.24290546	          0.00000000	
          0.56064692	          0.00000000	          0.00000000	          0.00000000	          0.00000000	          0.00000000	          0.00000000	        129.57440955	        435.72669851	         10.07466337	          1.40225208	          0.00000000	         -0.06989996	          0.00000000	          0.00000000	          0.00000000	          0.00000000	         -4.32692660	          0.00000000	
          0.64073933	          0.00000000	          0.00000000	          0.00000000	          0.00000000	          0.00000000	          0.00000000	          0.00000000	          0.00000000	          0.00000000	          0.00000000	          0.00000000	          0.00000000	          0.00000000	          0.00000000	          0.00000000	          0.00000000	          0.00000000	          0.00000000	
          0.72083175	          0.00000000	          0.00000000	          0.00000000	          0.00000000	          0.00000000	          0.00000000	          0.00000000	          0.00000000	          0.00000000	          0.00000000	          0.00000000	          0.00000000	          0.00000000	          0.00000000	          0.00000000	          0.00000000	          0.00000000	          0.00000000	
